<svg width="689" height="498" viewBox="0 0 689 498" fill="none" xmlns="http://www.w3.org/2000/svg">
<path d="M247.769 126.981H28.9176C19.0871 126.981 11.1179 134.948 11.1179 144.775V363.551C11.1179 373.378 19.0871 381.344 28.9176 381.344H247.769C257.599 381.344 265.568 373.378 265.568 363.551V144.775C265.568 134.948 257.599 126.981 247.769 126.981Z" fill="#F5EBDD"/>
<path d="M218.038 119.374C221.43 119.374 224.18 116.625 224.18 113.234C224.18 109.843 221.43 107.095 218.038 107.095C214.646 107.095 211.896 109.843 211.896 113.234C211.896 116.625 214.646 119.374 218.038 119.374Z" fill="#A15842"/>
<path d="M218.038 91.8916V111.19" stroke="#A15842" stroke-width="4" stroke-miterlimit="10"/>
<path d="M244.504 98.3284H235.158V179.021H244.504V98.3284Z" fill="#A15842"/>
<path d="M267.65 31.7952C265.781 35.4898 257.94 48.3875 239.831 48.3875C221.722 48.3875 213.887 35.4898 212.012 31.7952L194.503 98.3283H285.164L267.65 31.7952Z" fill="#FFBE21"/>
<path d="M260.094 33.0874L271.868 98.3405" stroke="#F5EBDD" stroke-width="4" stroke-miterlimit="10" stroke-linecap="round"/>
<path d="M219.573 33.9368L207.952 98.3405" stroke="#F5EBDD" stroke-width="4" stroke-miterlimit="10" stroke-linecap="round"/>
<path d="M232.196 33.5183L227.693 98.3164" stroke="#F5EBDD" stroke-width="4" stroke-miterlimit="10" stroke-linecap="round"/>
<path d="M247.465 33.5183L251.98 98.4438" stroke="#F5EBDD" stroke-width="4" stroke-miterlimit="10" stroke-linecap="round"/>
<path d="M239.855 48.3816C257.97 48.3816 265.805 35.4839 267.674 31.7893V31.6619H212.048L212.012 31.7893C213.887 35.4899 221.722 48.3816 239.855 48.3816Z" fill="#FF7235"/>
<path d="M595.806 2.42651H376.954C367.124 2.42651 359.155 10.393 359.155 20.22V238.996C359.155 248.823 367.124 256.79 376.954 256.79H595.806C605.636 256.79 613.605 248.823 613.605 238.996V20.22C613.605 10.393 605.636 2.42651 595.806 2.42651Z" fill="#F5EBDD"/>
<path d="M239.534 495.362C237.845 495.363 236.215 494.746 234.949 493.629C233.684 492.511 232.871 490.97 232.664 489.295L227.542 446.276H251.525L246.403 489.295C246.197 490.97 245.385 492.513 244.119 493.63C242.853 494.748 241.222 495.364 239.534 495.362V495.362Z" fill="#30242A"/>
<path d="M508.603 495.362C506.915 495.364 505.285 494.748 504.02 493.63C502.756 492.512 501.944 490.97 501.74 489.295L496.618 446.276H520.595L515.473 489.295C515.267 490.97 514.455 492.513 513.189 493.63C511.923 494.748 510.292 495.364 508.603 495.362Z" fill="#30242A"/>
<path d="M98.8113 268.486H206.477V446.846H49.7212V317.554C49.7228 304.54 54.8955 292.059 64.1015 282.857C73.3075 273.656 85.7929 268.486 98.8113 268.486V268.486Z" fill="#FFB7D5"/>
<path d="M219.307 179.021H590.253C603.272 179.021 615.759 184.191 624.965 193.394C634.171 202.597 639.343 215.079 639.343 228.094V446.828H170.229V228.088C170.229 215.073 175.401 202.591 184.607 193.388C193.813 184.185 206.299 179.015 219.319 179.015L219.307 179.021Z" fill="#FFB7D5"/>
<path d="M170.216 294.767V446.828" stroke="#A15842" stroke-width="4" stroke-miterlimit="10" stroke-linecap="round"/>
<path d="M219.307 339.824H590.253C603.272 339.824 615.759 344.994 624.965 354.197C634.171 363.4 639.343 375.882 639.343 388.897V446.834H170.229V388.897C170.229 375.885 175.399 363.404 184.602 354.202C193.806 344.999 206.289 339.827 219.307 339.824V339.824Z" fill="#FFB7D5"/>
<path d="M446.096 339.824H217.534C204.98 339.824 192.94 344.81 184.063 353.684C175.185 362.558 170.198 374.594 170.198 387.144V446.852" stroke="#A15842" stroke-width="4" stroke-miterlimit="10" stroke-linecap="round"/>
<path d="M481.41 340.57V446.828" stroke="#A15842" stroke-width="4" stroke-miterlimit="10"/>
<path d="M639.343 267.315H529.893" stroke="#A15842" stroke-width="4" stroke-miterlimit="10"/>
<path d="M137.463 248.582C151.5 250.335 155.876 244.377 157.933 239.227C160.27 233.385 158.765 228.361 156.944 221.834C156.944 221.834 161.58 219.31 160.858 216.416C160.251 214.08 154.978 213.82 154.978 213.82C154.771 212.776 154.587 211.694 154.425 210.574C153.254 202.384 151.5 197.707 151.5 197.707C147.404 198.877 142.142 198.313 140.388 197.707C138.019 204.269 133.742 209.973 128.105 214.087C128.105 214.087 115.233 200.054 107.047 210.58C100.371 219.164 109.972 229.872 116.405 231.043C112.581 239.105 102.295 243.783 96.9421 245.736C97.2699 248.272 97.5794 250.626 97.8525 252.677H137.906L137.463 248.582Z" fill="#EAA58B"/>
<path d="M276.771 299.493C278.885 291.979 280.611 284.361 281.942 276.67L267.905 238.663C267.905 238.663 273.755 222.889 268.512 220.535C263.269 218.181 251.526 233.415 246.846 245.682C244.826 250.984 239.303 263.172 233.689 275.299L276.771 299.493Z" fill="#EAA58B"/>
<path d="M218.766 307.076C218.766 307.076 184.842 278.424 170.156 267.892C155.469 257.36 138.634 259.132 138.634 259.132L137.9 252.695H97.8464C98.4532 257.263 98.8477 260.296 98.8477 260.296L69.0259 366.724L157.927 359.705L155.591 326.945C155.591 326.945 203.534 366.985 231.049 363.199C255.864 359.765 269.962 323.948 276.765 299.499L233.677 275.305C226.316 291.236 218.766 307.076 218.766 307.076Z" fill="#3EC1F3"/>
<path d="M116.405 231.061C109.972 229.89 100.365 219.182 107.047 210.598C115.233 200.072 128.105 214.105 128.105 214.105C133.742 209.991 138.019 204.287 140.388 197.725C142.142 198.331 147.404 198.895 151.5 197.725C151.5 197.725 160.276 194.8 159.687 187.787C158.904 178.372 144.479 182.521 144.479 182.521C144.479 182.521 128.7 170.825 111.707 178.426C93.5982 186.574 91.8383 202.996 92.9913 214.105C93.6589 220.481 95.4856 234.731 96.9239 245.754C102.295 243.795 112.581 239.124 116.405 231.061Z" fill="#30242A"/>
<path d="M279.096 283.98C276.419 285.085 274.071 285.406 273.027 284.806C270.405 283.313 269.993 280.189 273.106 275.797C273.106 275.797 265.708 278.678 263.426 274.929C261.144 271.18 264.573 267.728 264.573 267.728C264.573 267.728 259.336 269.172 258.055 264.513C256.775 259.853 261.09 257.415 261.09 257.415C261.09 257.415 258.14 256.316 258.055 253.241C257.94 248.77 265.229 245.142 267.328 244.189" stroke="#A15842" stroke-width="8" stroke-miterlimit="10" stroke-linecap="round"/>
<path d="M156.883 326.817L154.717 301.525" stroke="#4756DF" stroke-width="4" stroke-miterlimit="10" stroke-linecap="round"/>
<path d="M136.911 249.661C133.517 248.894 130.248 247.653 127.201 245.973" stroke="#A15842" stroke-width="4" stroke-miterlimit="10" stroke-linecap="round"/>
<path d="M72.825 358.825L87.8997 318.755" stroke="#4756DF" stroke-width="4" stroke-miterlimit="10" stroke-linecap="round"/>
<path d="M152.174 227.827C151.209 228.434 147.58 228.895 146.105 226.111" stroke="#A15842" stroke-width="4" stroke-miterlimit="10" stroke-linecap="round"/>
<path d="M146.821 214.687C147.79 214.687 148.575 213.902 148.575 212.934C148.575 211.965 147.79 211.18 146.821 211.18C145.853 211.18 145.067 211.965 145.067 212.934C145.067 213.902 145.853 214.687 146.821 214.687Z" fill="#A15842"/>
<path d="M114.651 218.2L121.084 221.706" stroke="#A15842" stroke-width="4" stroke-miterlimit="10" stroke-linecap="round"/>
<path d="M278.756 471.556L323.561 458.3C320.145 446.494 313.609 424.114 309.403 411.077L253.492 434.41C260.808 447.508 269.262 459.938 278.756 471.556V471.556Z" fill="#EAA58B"/>
<path d="M279.605 472.557C278.294 477.534 277.481 482.628 277.178 487.766H356.442C354.921 484.108 352.221 481.063 348.771 479.115L325.813 466.12C325.813 466.12 324.939 463.087 323.561 458.294L278.756 471.556C279.302 472.211 279.605 472.557 279.605 472.557Z" fill="#FFBE21"/>
<path d="M277.263 495.361H357.977L357.729 492.862C357.554 491.108 357.118 489.391 356.436 487.766H277.172C276.998 490.296 277.028 492.836 277.263 495.361V495.361Z" fill="#FF7235"/>
<path d="M237.488 397.13C241.36 410.477 247.289 423.283 253.492 434.41L309.403 411.077C308.796 409.118 308.189 407.37 307.679 405.896C290.183 355.355 279.605 314.708 253.868 310.589C213.359 304.146 144.448 373.889 134.101 384.602L149.006 393.635L195.869 415.639L212.94 419.577L237.488 397.13Z" fill="#A15842"/>
<path d="M236.214 396.608C234.887 390.141 234.236 383.554 234.272 376.952" stroke="#30242A" stroke-width="4" stroke-miterlimit="10" stroke-linecap="round"/>
<path d="M453.33 258.543C453.33 258.543 397.273 273.328 372.615 287.196C344.535 302.969 342.781 324.033 325.237 377.244C319.586 394.37 315.593 408.129 311.885 418.94L360.217 441.75L360.308 441.568C360.308 441.568 383.976 438.092 386.045 408.808C387.605 386.968 388.351 370.764 395.986 354.427L526.428 258.531L453.33 258.543Z" fill="#30242A"/>
<path d="M285.826 451.063C268.925 453.623 261.873 456.911 259.124 464.573L291.051 479.43C291.051 479.43 308.171 474.577 317.39 476.949V476.979C323.565 478.428 329.592 480.444 335.396 483.004C344.908 470.025 353.235 456.218 360.277 441.75L311.946 418.94C305.015 439.172 299.238 449.03 285.826 451.063Z" fill="#4856DF"/>
<path d="M309.7 488.118L325.273 495.362C328.87 491.439 332.237 487.313 335.359 483.004C329.556 480.444 323.528 478.428 317.353 476.979L309.7 488.118Z" fill="#30242A"/>
<path d="M301.708 438.456L312.547 443.194" stroke="#F5EBDD" stroke-width="4" stroke-miterlimit="10" stroke-linecap="round"/>
<path d="M295.548 445.973L306.387 450.717" stroke="#F5EBDD" stroke-width="4" stroke-miterlimit="10" stroke-linecap="round"/>
<path d="M510.066 128.437C513.458 128.437 516.208 125.689 516.208 122.298C516.208 118.907 513.458 116.158 510.066 116.158C506.674 116.158 503.925 118.907 503.925 122.298C503.925 125.689 506.674 128.437 510.066 128.437Z" fill="#FFBE21"/>
<path d="M531.713 83.7078C545.281 83.7078 556.28 72.7129 556.28 59.1499C556.28 45.587 545.281 34.592 531.713 34.592C518.146 34.592 507.147 45.587 507.147 59.1499C507.147 72.7129 518.146 83.7078 531.713 83.7078Z" fill="#30242A"/>
<path d="M514.77 75.5238C516.275 76.2154 503.658 46.2824 497.225 50.9598C491.144 55.3642 507.141 72.0415 514.77 75.5238Z" fill="#3EC1F3"/>
<path d="M515.443 77.35C516.821 78.9941 548.997 67.7404 544.573 61.243C540.258 55.0004 514.072 75.6817 515.443 77.35Z" fill="#3EC1F3"/>
<path d="M575.584 194.807L578.4 194.37V193.545C577.49 194.025 576.549 194.446 575.584 194.807Z" fill="#30242A"/>
<path d="M498.954 188.376C526.337 188.873 540.155 161.003 543.663 152.686C542.449 152.461 541.235 152.267 539.9 152.121C524.121 150.368 521.184 149.786 515.916 142.767C510.649 135.748 510.066 121.715 510.066 121.715C510.066 121.715 523.709 118.682 521.767 107.683C520.013 97.7399 508.312 97.7399 501.879 104.759C501.879 104.759 491.933 102.417 482.575 91.8916C482.575 91.8916 475.729 93.4993 471.044 92.7167C469.83 100.373 469.903 108.939 468.519 115.867C466.177 127.564 467.913 135.165 474.952 139.26C481.992 143.355 490.161 140.425 490.161 140.425L488.407 150.951C488.407 150.951 478.193 152.134 469.679 154.809C471.372 168.022 477.459 187.988 498.954 188.376Z" fill="#A15842"/>
<path d="M536.975 258.543L540.161 256.383L534.639 258.543H536.975Z" fill="#A15842"/>
<path d="M410.63 190.718C410.63 190.718 379.964 148.858 372.609 140.425C364.416 131.07 353.304 121.133 349.797 124.652C346.289 128.17 356.229 139.855 356.229 139.855L354.476 177.862C354.476 177.862 374.624 232.177 396.593 239.263C407.577 242.806 428.442 233.463 443.183 225.553L420.382 184.299C414.587 188.097 410.63 190.718 410.63 190.718Z" fill="#A15842"/>
<path d="M575.585 194.807C575.585 194.807 573.242 181.945 570.317 174.926C565.941 164.419 558.719 155.513 543.663 152.686C540.155 161.003 526.337 188.873 498.954 188.376C477.459 187.988 471.372 168.022 469.697 154.809C467.904 155.357 466.148 156.022 464.441 156.799C458.27 159.681 434.146 175.296 420.382 184.299L443.158 225.528C452.741 220.39 459.738 215.822 459.738 215.822L453.305 258.507H534.627L540.149 256.347L578.382 230.418C578.333 218.495 577.398 206.592 575.585 194.807V194.807Z" fill="#FF7235"/>
<path d="M592.547 164.989C588.353 145.084 566.809 145.691 566.809 145.691C567.855 140.928 567.708 135.981 566.381 131.288C565.055 126.595 562.59 122.303 559.205 118.791C547.504 106.512 531.125 111.772 531.125 111.772C531.732 104.759 532.879 86.632 517.671 75.5239C502.462 64.4158 483.164 70.258 476.142 79.0304C473.284 82.6037 471.894 87.4449 471.062 92.7168C475.729 93.4994 482.593 91.8918 482.593 91.8918C491.951 102.417 501.898 104.759 501.898 104.759C508.331 97.74 520.031 97.74 521.785 107.683C523.727 118.682 510.085 121.715 510.085 121.715C510.085 121.715 510.691 135.748 515.935 142.767C521.178 149.786 524.128 150.368 539.918 152.122C541.229 152.267 542.48 152.461 543.681 152.686C558.738 155.507 565.96 164.419 570.335 174.926C573.26 181.945 575.603 194.807 575.603 194.807C576.557 194.445 577.487 194.024 578.388 193.545C584.056 190.596 596.164 182.158 592.547 164.989Z" fill="#30242A"/>
<path d="M508.901 111.772L513.58 108.854" stroke="#30242A" stroke-width="4" stroke-miterlimit="10" stroke-linecap="round"/>
<path d="M478.964 125.501C479.935 126.108 483.558 126.569 485.033 123.784" stroke="#30242A" stroke-width="4" stroke-miterlimit="10" stroke-linecap="round"/>
<path d="M488.504 112.342C489.473 112.342 490.258 111.558 490.258 110.589C490.258 109.621 489.473 108.836 488.504 108.836C487.535 108.836 486.75 109.621 486.75 110.589C486.75 111.558 487.535 112.342 488.504 112.342Z" fill="#30242A"/>
<path d="M474.971 110.019C475.939 110.019 476.724 109.234 476.724 108.266C476.724 107.297 475.939 106.512 474.971 106.512C474.002 106.512 473.217 107.297 473.217 108.266C473.217 109.234 474.002 110.019 474.971 110.019Z" fill="#30242A"/>
<path d="M479.65 112.943C479.65 112.943 478.054 116.941 478.436 117.742C478.713 118.256 479.135 118.678 479.65 118.955" stroke="#30242A" stroke-width="4" stroke-miterlimit="10" stroke-linecap="round"/>
<path d="M360.016 185.755C360.968 185.747 361.892 185.437 362.656 184.87C364.726 182.801 364.307 179.774 360.265 176.473C360.265 176.473 367.924 177.268 369.089 173.173C370.254 169.078 366.17 166.742 366.17 166.742C366.17 166.742 371.432 166.742 371.432 162.065C371.432 157.388 366.752 156.217 366.752 156.217C366.752 156.217 369.229 154.427 368.506 151.539C367.335 146.862 357.394 145.691 357.394 145.691L356.023 144.017" stroke="#30242A" stroke-width="8" stroke-linecap="round" stroke-linejoin="round"/>
<path d="M490.495 141.565C492.962 140.585 495.369 139.461 497.704 138.198" stroke="#30242A" stroke-width="4" stroke-miterlimit="10" stroke-linecap="round"/>
<path d="M412.086 190.584L418.234 198.902" stroke="#30242A" stroke-width="4" stroke-miterlimit="10" stroke-linecap="round"/>
<path d="M461.741 196.554L458.755 215.288" stroke="#A15842" stroke-width="4" stroke-miterlimit="10" stroke-linecap="round"/>
<path d="M534.05 234.568L533.759 204.459" stroke="#A15842" stroke-width="4" stroke-miterlimit="10" stroke-linecap="round"/>
<path d="M567.695 146.51C566.85 149.668 565.719 152.742 564.315 155.695" stroke="black" stroke-width="4" stroke-linecap="round" stroke-linejoin="round"/>
<path d="M532.199 112.446L530.542 121.133" stroke="black" stroke-width="4" stroke-linecap="round" stroke-linejoin="round"/>
<path d="M496.618 259.132C496.618 259.132 446.308 274.905 418.234 288.367C390.317 301.713 393.667 332.805 398.929 387.187C400.792 406.412 402.971 421.463 404.075 433.384H457.48C460.223 431.856 476.415 421.463 466.759 393.035C459.708 372.281 453.621 358.534 453.621 340.504H498.287C510.992 340.504 523.197 335.553 532.309 326.701C541.421 317.849 546.722 305.795 547.085 293.099L548.062 259.125L496.618 259.132Z" fill="#30242A"/>
<path d="M393.892 471.835C379.667 481.311 374.672 487.269 375.413 495.38L410.611 495.331C410.611 495.331 424.066 483.689 433.424 481.936C439.625 480.758 445.924 480.171 452.237 480.183C454.379 469.693 456.685 453.95 457.092 433.603L457.48 433.403H404.075C405.938 453.41 404.755 464.585 393.892 471.835Z" fill="#4856DF"/>
<path d="M431.221 495.276H448.402C448.402 495.276 450.271 490.053 452.286 480.189C445.973 480.177 439.674 480.764 433.473 481.942L431.221 495.276Z" fill="#30242A"/>
<path d="M453.081 341.577H439.292" stroke="black" stroke-width="4" stroke-linecap="round" stroke-linejoin="round"/>
<path d="M403.001 456.48H416.189" stroke="#F5EBDD" stroke-width="4" stroke-miterlimit="10" stroke-linecap="round"/>
<path d="M400.07 465.835H413.258" stroke="#F5EBDD" stroke-width="4" stroke-miterlimit="10" stroke-linecap="round"/>
<path d="M221.989 363.794C236.364 363.794 248.018 352.144 248.018 337.774C248.018 323.403 236.364 311.754 221.989 311.754C207.613 311.754 195.96 323.403 195.96 337.774C195.96 352.144 207.613 363.794 221.989 363.794Z" fill="white"/>
<path d="M229.301 329.881C229.301 325.843 226.027 322.571 221.989 322.571C217.95 322.571 214.676 325.843 214.676 329.881V338.647C214.676 342.685 217.95 345.958 221.989 345.958C226.027 345.958 229.301 342.685 229.301 338.647V329.881Z" fill="#4856DF"/>
<path d="M221.989 343.622V351.812" stroke="#4856DF" stroke-width="4" stroke-miterlimit="10" stroke-linecap="round"/>
<path d="M217.795 351.812H226.176" stroke="#4856DF" stroke-width="4" stroke-miterlimit="10" stroke-linecap="round"/>
<path d="M38.3119 163.812C43.6411 163.812 47.9612 159.493 47.9612 154.166C47.9612 148.839 43.6411 144.52 38.3119 144.52C32.9827 144.52 28.6626 148.839 28.6626 154.166C28.6626 159.493 32.9827 163.812 38.3119 163.812Z" fill="white"/>
<path d="M67.5634 163.812C72.8925 163.812 77.2127 159.493 77.2127 154.166C77.2127 148.839 72.8925 144.52 67.5634 144.52C62.2342 144.52 57.9141 148.839 57.9141 154.166C57.9141 159.493 62.2342 163.812 67.5634 163.812Z" fill="white"/>
<path d="M96.8085 163.812C102.138 163.812 106.458 159.493 106.458 154.166C106.458 148.839 102.138 144.52 96.8085 144.52C91.4793 144.52 87.1592 148.839 87.1592 154.166C87.1592 159.493 91.4793 163.812 96.8085 163.812Z" fill="white"/>
<path d="M247.745 126.981C252.464 126.981 256.99 128.855 260.327 132.191C263.663 135.527 265.538 140.051 265.538 144.769V363.551C265.538 368.269 263.663 372.793 260.327 376.129C256.99 379.464 252.464 381.338 247.745 381.338H28.9115C24.1924 381.338 19.6665 379.464 16.3295 376.129C12.9926 372.793 11.1179 368.269 11.1179 363.551V144.769C11.1179 140.051 12.9926 135.527 16.3295 132.191C19.6665 128.855 24.1924 126.981 28.9115 126.981H247.745ZM247.745 124.555H28.9115C23.5505 124.561 18.4109 126.693 14.6201 130.482C10.8294 134.272 8.69685 139.41 8.69043 144.769V363.551C8.69685 368.91 10.8294 374.048 14.6201 377.837C18.4109 381.627 23.5505 383.759 28.9115 383.765H247.745C253.106 383.759 258.245 381.627 262.036 377.837C265.827 374.048 267.959 368.91 267.966 363.551V144.769C267.959 139.41 265.827 134.272 262.036 130.482C258.245 126.693 253.106 124.561 247.745 124.555Z" fill="#F5EBDD"/>
<path d="M531.665 268.486H639.343V446.846H482.605V317.554C482.607 304.545 487.775 292.069 496.975 282.868C506.174 273.667 518.652 268.494 531.665 268.486V268.486Z" fill="#FFB7D5"/>
<path d="M612.434 446.925C613.871 442.798 616.558 439.22 620.122 436.688C623.686 434.157 627.949 432.797 632.321 432.797C636.693 432.797 640.956 434.157 644.52 436.688C648.084 439.22 650.771 442.798 652.208 446.925C653.583 442.986 656.097 439.544 659.431 437.035C662.765 434.526 666.77 433.063 670.936 432.832C669.076 429.514 666.86 426.408 664.328 423.568L656.681 415.008C654.3 412.338 652.799 409 652.382 405.448C651.965 401.895 652.652 398.3 654.351 395.152L660.844 383.092C659.024 384.912 648.488 394.788 632.497 394.788C616.506 394.788 605.977 384.93 604.156 383.092L610.656 395.152C612.35 398.302 613.035 401.897 612.616 405.449C612.197 409.002 610.694 412.339 608.313 415.008L600.666 423.568C598.128 426.413 595.908 429.525 594.045 432.85C598.151 433.143 602.081 434.632 605.349 437.134C608.617 439.635 611.08 443.039 612.434 446.925V446.925Z" fill="#4756DF"/>
<path d="M672.096 459.095C667.723 459.097 663.46 460.459 659.897 462.992C656.333 465.525 653.646 469.103 652.208 473.23C650.774 469.1 648.088 465.519 644.524 462.985C640.96 460.451 636.695 459.089 632.321 459.089C627.947 459.089 623.683 460.451 620.119 462.985C616.555 465.519 613.869 469.1 612.434 473.23C610.696 468.24 607.145 464.085 602.485 461.59C597.825 459.095 592.397 458.442 587.279 459.762C587.579 473.11 592.967 485.84 602.341 495.349H662.592C671.948 485.86 677.333 473.161 677.649 459.841C675.839 459.348 673.972 459.097 672.096 459.095Z" fill="#4756DF"/>
<path d="M632.467 394.788C648.458 394.788 658.988 384.93 660.814 383.092H604.126C605.947 384.93 616.482 394.788 632.467 394.788Z" fill="#30242A"/>
<path d="M612.434 473.242C613.869 469.112 616.555 465.531 620.119 462.997C623.683 460.463 627.948 459.101 632.321 459.101C636.695 459.101 640.96 460.463 644.524 462.997C648.088 465.531 650.774 469.112 652.209 473.242C653.961 468.203 657.563 464.016 662.286 461.531C667.009 459.045 672.5 458.445 677.649 459.853C677.89 450.406 675.571 441.069 670.937 432.832C666.77 433.063 662.765 434.526 659.431 437.035C656.097 439.544 653.583 442.986 652.209 446.925C650.771 442.798 648.084 439.22 644.52 436.689C640.957 434.157 636.693 432.797 632.321 432.797C627.949 432.797 623.686 434.157 620.122 436.689C616.559 439.22 613.872 442.798 612.434 446.925C611.076 443.03 608.604 439.62 605.324 437.118C602.044 434.616 598.101 433.132 593.985 432.85C589.384 441.064 587.078 450.364 587.309 459.774C592.428 458.455 597.856 459.107 602.516 461.602C607.175 464.097 610.727 468.252 612.464 473.242H612.434Z" fill="#3EC1F3"/>
<path d="M636.667 393.132C637.82 386.058 643.081 357.994 656.305 342.779" stroke="#30242A" stroke-width="4" stroke-miterlimit="10" stroke-linecap="round"/>
<path d="M630.555 393.332C630.47 385.3 629.645 345.83 621.792 322.279" stroke="#30242A" stroke-width="4" stroke-miterlimit="10" stroke-linecap="round"/>
<path d="M665.342 365.683C676.939 360.582 685.409 354.334 684.262 351.727C683.114 349.12 672.783 351.142 661.187 356.243C649.591 361.344 641.12 367.592 642.267 370.199C643.415 372.805 653.746 370.784 665.342 365.683Z" fill="#30242A"/>
<path d="M665.335 293.971C669.503 288.338 671.287 282.593 669.319 281.139C667.352 279.684 662.379 283.071 658.211 288.704C654.044 294.336 652.26 300.081 654.227 301.536C656.194 302.99 661.167 299.603 665.335 293.971Z" fill="#30242A"/>
<path d="M602.576 369.755C617.691 367.47 629.617 363.453 629.213 360.782C628.809 358.112 616.228 357.8 601.113 360.085C585.998 362.37 574.072 366.387 574.476 369.058C574.88 371.728 587.461 372.04 602.576 369.755Z" fill="#30242A"/>
<path d="M592.013 330.306V330.348C594.244 331.597 595.926 333.636 596.728 336.064C597.53 338.491 597.393 341.13 596.346 343.462C595.298 345.794 593.415 347.649 591.068 348.662C588.72 349.675 586.078 349.773 583.662 348.936V348.979C596.334 354.669 608.483 355.1 610.802 349.943C613.12 344.787 604.684 335.996 592.013 330.306Z" fill="#FF7235"/>
<path d="M629.469 289.058C626.768 288.361 623.261 292.437 620.7 298.765C617.617 291.103 613.144 285.976 610.134 286.971C607.124 287.966 606.578 294.743 608.665 302.745C602.851 299.202 597.602 298.013 595.854 300.179C593.621 302.945 597.923 310.116 605.467 316.201C607.613 317.95 609.924 319.488 612.367 320.793C612.783 319.142 613.605 317.621 614.759 316.368C615.912 315.115 617.36 314.17 618.972 313.618C620.583 313.067 622.307 312.926 623.986 313.21C625.666 313.494 627.248 314.192 628.589 315.242C629.72 312.811 630.624 310.28 631.289 307.683C633.717 298.28 632.91 289.95 629.469 289.058Z" fill="#FF7235"/>
<path d="M688.275 331.628C687.444 328.971 682.127 328.152 675.415 329.311C680.27 322.637 682.285 316.14 679.846 314.108C677.406 312.075 671.349 315.206 665.681 321.2C665.614 314.393 663.86 309.315 661.087 308.975C657.561 308.545 653.744 315.988 652.591 325.604C652.242 328.35 652.158 331.123 652.342 333.885C653.964 333.365 655.69 333.258 657.364 333.574C659.038 333.89 660.606 334.619 661.926 335.695C663.246 336.771 664.277 338.159 664.924 339.734C665.572 341.309 665.815 343.021 665.632 344.714C668.295 344.389 670.922 343.819 673.479 343.009C682.698 340.116 689.337 335.02 688.275 331.628Z" fill="#FF7235"/>
<path d="M661.979 335.766C660.657 334.663 659.077 333.913 657.387 333.584C655.697 333.256 653.951 333.359 652.312 333.885C652.639 338.459 653.798 341.96 655.54 343.264C657.16 344.769 660.923 345.266 665.602 344.714C665.783 343.039 665.547 341.346 664.915 339.785C664.283 338.223 663.274 336.843 661.979 335.766V335.766Z" fill="#30242A"/>
<path d="M619.079 313.562C617.443 314.101 615.971 315.045 614.798 316.306C613.626 317.567 612.791 319.105 612.373 320.775C616.427 322.916 620.014 323.808 622.041 322.995C624.177 322.389 626.586 319.489 628.595 315.224C627.269 314.183 625.706 313.487 624.046 313.197C622.386 312.907 620.679 313.032 619.079 313.562V313.562Z" fill="#30242A"/>
<path d="M593.141 347.468C592.057 346.86 591.24 345.867 590.852 344.686C590.464 343.505 590.533 342.222 591.045 341.089C591.557 339.957 592.475 339.057 593.618 338.568C594.761 338.079 596.046 338.036 597.219 338.447C597.084 336.77 596.536 335.152 595.624 333.737C594.713 332.322 593.466 331.153 591.994 330.336L583.644 348.924C585.225 349.479 586.918 349.637 588.574 349.383C590.231 349.129 591.799 348.472 593.141 347.468V347.468Z" fill="#F5EBDD"/>
<path d="M591.011 341.098C590.501 342.235 590.437 343.523 590.831 344.705C591.226 345.887 592.05 346.878 593.141 347.48C594.531 346.446 595.635 345.076 596.348 343.497C597.062 341.919 597.361 340.185 597.219 338.459C596.042 338.038 594.749 338.076 593.599 338.565C592.448 339.054 591.524 339.958 591.011 341.098V341.098Z" fill="#4856DF"/>
<path d="M386.355 39.2634C391.684 39.2634 396.004 34.9448 396.004 29.6174C396.004 24.2901 391.684 19.9714 386.355 19.9714C381.026 19.9714 376.706 24.2901 376.706 29.6174C376.706 34.9448 381.026 39.2634 386.355 39.2634Z" fill="white"/>
<path d="M415.6 39.2634C420.929 39.2634 425.249 34.9448 425.249 29.6174C425.249 24.2901 420.929 19.9714 415.6 19.9714C410.271 19.9714 405.951 24.2901 405.951 29.6174C405.951 34.9448 410.271 39.2634 415.6 39.2634Z" fill="white"/>
<path d="M444.846 39.2634C450.175 39.2634 454.495 34.9448 454.495 29.6174C454.495 24.2901 450.175 19.9714 444.846 19.9714C439.516 19.9714 435.196 24.2901 435.196 29.6174C435.196 34.9448 439.516 39.2634 444.846 39.2634Z" fill="white"/>
<path d="M595.805 2.42667C600.526 2.42667 605.054 4.30134 608.392 7.63827C611.73 10.9752 613.605 15.5011 613.605 20.2202V239.002C613.603 243.721 611.727 248.245 608.389 251.58C605.052 254.916 600.525 256.79 595.805 256.79H376.954C372.234 256.79 367.708 254.916 364.37 251.58C361.032 248.245 359.156 243.721 359.155 239.002V20.2202C359.155 17.8835 359.615 15.5697 360.509 13.4109C361.404 11.2521 362.715 9.29056 364.368 7.63827C366.021 5.98599 367.983 4.67533 370.143 3.78112C372.302 2.88691 374.617 2.42667 376.954 2.42667H595.805ZM595.805 0H376.954C371.592 0.006422 366.45 2.13882 362.659 5.92945C358.867 9.72008 356.733 14.8594 356.727 20.2202V239.002C356.733 244.363 358.867 249.501 362.659 253.291C366.451 257.081 371.592 259.212 376.954 259.217H595.805C601.167 259.212 606.309 257.081 610.101 253.291C613.893 249.501 616.026 244.363 616.033 239.002V20.2202C616.026 14.8594 613.893 9.72008 610.101 5.92945C606.309 2.13882 601.168 0.006422 595.805 0V0Z" fill="#F5EBDD"/>
<path d="M356.812 139.843C356.812 139.843 343.946 139.843 342.192 145.102C340.439 150.362 344.529 154.463 344.529 154.463C344.529 154.463 337.513 157.97 342.192 164.4C342.192 164.4 338.679 170.249 344.529 173.755C344.529 173.755 341.021 177.85 346.871 181.945C352.722 186.04 360.908 186.623 362.65 184.869C364.72 182.801 364.301 179.773 360.259 176.473C360.259 176.473 367.918 177.268 369.083 173.173C370.248 169.078 366.164 166.742 366.164 166.742C366.164 166.742 371.426 166.742 371.426 162.065C371.426 157.387 366.747 156.216 366.747 156.216C366.747 156.216 369.223 154.427 368.5 151.539C367.639 148.099 362.043 146.558 359.136 145.982C358.364 145.84 357.584 145.742 356.8 145.691L356.812 139.843Z" fill="#A15842"/>
<path d="M345.203 174.247C351.014 176.003 356.998 177.128 363.051 177.602" stroke="#30242A" stroke-width="4" stroke-miterlimit="10" stroke-linecap="round"/>
<path d="M343.024 164.862C351.491 166.956 360.209 167.852 368.925 167.525" stroke="#30242A" stroke-width="4" stroke-miterlimit="10" stroke-linecap="round"/>
<path d="M344.875 155.155C352.901 157.082 361.199 157.611 369.405 156.72" stroke="#30242A" stroke-width="4" stroke-miterlimit="10" stroke-linecap="round"/>
<path d="M532.879 250.966C532.879 250.966 485.5 263.251 469.12 275.53C461.723 281.075 452.735 291.303 449.822 295.992C446.909 300.682 434.613 318.215 440.464 318.797C446.314 319.379 452.747 308.86 452.747 308.86C452.747 308.86 449.227 321.721 449.834 325.816C450.441 329.911 456.267 328.74 456.267 328.74C460.946 333.418 465.042 327.569 465.042 327.569C473.229 332.829 482.035 304.765 482.035 304.765C486.839 302.398 491.273 299.345 495.198 295.701C495.198 295.701 547.547 295.41 563.926 280.789C575.554 270.415 578.425 249.953 578.419 230.479H532.903L532.879 250.966Z" fill="#A15842"/>
<path d="M533.315 249.546L543.996 246.877" stroke="#30242A" stroke-width="4" stroke-miterlimit="10" stroke-linecap="round"/>
<path d="M450.441 313.495C453.475 303.182 455.903 297.115 457.723 293.36" stroke="#30242A" stroke-width="4" stroke-miterlimit="10" stroke-linecap="round"/>
<path d="M465.904 296.872C460.636 308.217 457.408 321.903 455.903 328.662" stroke="#30242A" stroke-width="4" stroke-miterlimit="10" stroke-linecap="round"/>
<path d="M474.109 300.961C470.668 308.848 467.543 320.714 465.613 328.055" stroke="#30242A" stroke-width="4" stroke-miterlimit="10" stroke-linecap="round"/>
<path d="M460.442 271.435C446.187 276.507 430.274 282.598 418.234 288.367C396.653 298.68 393.759 319.616 395.986 353.693" stroke="black" stroke-width="4" stroke-linecap="round" stroke-linejoin="round"/>
<path d="M117.612 439.251C93.6833 444.104 76.6301 450.341 76.6301 450.341L53.6053 440.143L53.6538 439.639L0 488.348L1.17126 489.75C2.63582 491.506 4.46853 492.919 6.53971 493.888C8.6109 494.858 10.87 495.361 13.157 495.361H120.847L117.612 439.251Z" fill="#EAA58B"/>
<path d="M76.6057 450.341C76.6057 450.341 93.6589 444.074 117.588 439.251L120.823 495.361H197.683C218.463 495.361 236.675 480.801 240.547 460.393C243.126 446.773 239.096 432.189 224.616 422.27C201.325 406.315 151.5 385.433 138.634 381.338L67.8546 397.718C54.4001 412.339 57.3253 436.308 57.3253 436.308L76.6057 450.341Z" fill="#A15842"/>
<path d="M117.788 440.009C133.701 436.933 151.476 434.27 176.358 435.429" stroke="#30242A" stroke-width="4" stroke-miterlimit="10" stroke-linecap="round"/>
<path d="M139.848 380.732C151.106 384.317 190.662 400.752 215.975 415.494" stroke="#30242A" stroke-width="4" stroke-miterlimit="10" stroke-linecap="round"/>
<path d="M65.0751 440.064L6.03223 493.626C8.24016 494.767 10.6896 495.362 13.1751 495.361H56.154L76.6057 450.341C73.4026 446.258 69.4982 442.778 65.0751 440.064V440.064Z" fill="#FFBE21"/>
<path d="M57.3254 436.302L0 488.348L1.17126 489.75C2.51207 491.356 4.1634 492.674 6.02626 493.626L65.0752 440.064C62.6389 438.528 60.0397 437.266 57.3254 436.302Z" fill="#FF7235"/>
<path d="M44.1621 485.133V495.495" stroke="#30242A" stroke-width="4" stroke-miterlimit="10" stroke-linecap="round"/>
<path d="M34.8042 485.133V495.495" stroke="#30242A" stroke-width="4" stroke-miterlimit="10" stroke-linecap="round"/>
<path d="M99.0903 259.313C100.911 259.144 104.71 258.834 108.509 258.834" stroke="#4756DF" stroke-width="4" stroke-miterlimit="10" stroke-linecap="round"/>
<path d="M267.905 238.663C267.905 238.663 279.314 234.883 282.47 239.639C285.626 244.396 282.701 249.589 282.701 249.589C282.701 249.589 290.645 251.16 287.75 258.84C287.75 258.84 292.841 263.694 287.986 268.79C287.986 268.79 292.599 271.902 287.895 277.574C283.192 283.247 275.212 286.068 272.985 284.806C270.363 283.313 269.95 280.189 273.063 275.797C273.063 275.797 265.666 278.678 263.384 274.929C261.102 271.18 264.531 267.728 264.531 267.728C264.531 267.728 259.293 269.172 258.013 264.513C256.732 259.854 261.047 257.415 261.047 257.415C261.047 257.415 258.098 256.317 258.013 253.241C257.898 248.77 265.744 244.875 267.844 243.929L267.905 238.663Z" fill="#EAA58B"/>
<path d="M259.275 258.234C263.778 257.445 275.218 255.006 282.792 249.74" stroke="#A15842" stroke-width="4" stroke-miterlimit="10" stroke-linecap="round"/>
<path d="M261.096 269.16C270.605 267.969 279.728 264.669 287.798 259.501" stroke="#A15842" stroke-width="4" stroke-miterlimit="10" stroke-linecap="round"/>
<path d="M269.592 278.06C271.212 277.489 281.784 273.698 288.199 269.633" stroke="#A15842" stroke-width="4" stroke-miterlimit="10" stroke-linecap="round"/>
<path d="M107.66 352.928C97.0698 354.221 85.2539 356.132 71.9512 358.51L90.6672 308.223L98.854 260.296C98.854 260.296 71.9512 263.221 59.668 277.283C48.3377 290.223 12.8719 350.374 26.8968 381.951C40.9217 413.528 83.0631 402.39 92.9916 399.466C98.411 397.87 106.622 394.194 115.051 391.458L107.66 352.928Z" fill="#3EC1F3"/>
<path d="M135.121 388.358C147.993 390.111 162.612 396.541 164.955 388.358C164.955 388.358 172.844 388.157 170.356 380.659C170.356 380.659 174.313 380.168 174.895 377.243C176.067 371.401 162.03 366.135 162.03 366.135C162.03 366.135 173.141 367.889 175.484 365.529C178.464 362.544 175.563 357.794 157.411 353.395C144.23 350.204 128.281 350.398 107.647 352.922L115.057 391.427C122.121 389.183 129.27 387.557 135.121 388.358Z" fill="#EAA58B"/>
<path d="M167.03 366.882C160.797 364.491 148.963 360.518 140.388 359.122" stroke="#A15842" stroke-width="4" stroke-miterlimit="10" stroke-linecap="round"/>
<path d="M170.599 380.416C162.467 376.776 146.761 370.03 138.337 368.768" stroke="#A15842" stroke-width="4" stroke-miterlimit="10" stroke-linecap="round"/>
<path d="M164.293 388.964C158.024 385.785 145.48 379.816 136.583 378.123" stroke="#A15842" stroke-width="4" stroke-miterlimit="10" stroke-linecap="round"/>
<path d="M107.763 353.802C102.046 354.542 83.7608 357.066 56.4453 362.338" stroke="#4756DF" stroke-width="4" stroke-miterlimit="10" stroke-linecap="round"/>
<path d="M570.025 239.245C584.401 239.245 596.054 227.595 596.054 213.225C596.054 198.855 584.401 187.205 570.025 187.205C555.65 187.205 543.997 198.855 543.997 213.225C543.997 227.595 555.65 239.245 570.025 239.245Z" fill="white"/>
<path d="M577.339 205.332C577.339 201.295 574.064 198.022 570.026 198.022C565.987 198.022 562.713 201.295 562.713 205.332V214.099C562.713 218.136 565.987 221.409 570.026 221.409C574.064 221.409 577.339 218.136 577.339 214.099V205.332Z" fill="#4856DF"/>
<path d="M570.025 219.073V227.263" stroke="#4856DF" stroke-width="4" stroke-miterlimit="10" stroke-linecap="round"/>
<path d="M565.832 227.263H574.219" stroke="#4856DF" stroke-width="4" stroke-miterlimit="10" stroke-linecap="round"/>
</svg>
